<svg width="1920" height="780" viewBox="0 0 1920 780" fill="none" xmlns="http://www.w3.org/2000/svg">
<rect width="1920" height="780" fill="#030712"/>
<g clip-path="url(#clip0_1_31)">
<path d="M145.57 195.544C145.473 195.428 145.378 195.313 145.284 195.2C145.727 194.834 146.179 194.449 146.635 194.06C146.884 193.848 147.134 193.635 147.385 193.424C148.582 192.413 149.845 191.384 151.229 190.455C153.985 188.604 157.16 187.188 161.044 187.188C164.289 187.188 167.436 187.746 170.363 189.357C173.11 190.869 175.769 193.365 178.148 197.414C175.953 200.712 170.181 205.885 161.414 205.529C153.62 205.213 148.952 199.607 145.57 195.544Z" fill="#ADFF8C" stroke="#ADFF8C" stroke-width="3.125"/>
<path d="M191.896 147.298C188.826 146.6 186.071 145.405 183.9 144.453C183.965 144.277 184.03 144.097 184.097 143.915C184.809 141.96 185.649 139.653 186.891 137.341C188.558 134.242 190.815 131.424 194.091 129.915C196.911 128.617 200.076 127.727 203.483 127.884C206.684 128.031 210.196 129.107 213.931 131.795C213.622 135.503 211.528 141.787 203.263 146.233C199.608 148.199 195.629 148.146 191.896 147.298Z" fill="#ADFF8C" stroke="#ADFF8C" stroke-width="3.125"/>
<path d="M163.567 170.062C163.378 169.819 163.195 169.584 163.016 169.356C163.331 169.095 163.651 168.825 163.978 168.55C165.52 167.249 167.217 165.819 169.237 164.513C172.173 162.614 175.459 161.231 179.105 161.404C184.991 161.685 192.02 164.377 196.543 173.338C195.595 174.737 193.797 176.523 191.234 178.043C188.283 179.793 184.414 181.133 179.863 181.133C175.54 181.133 171.925 178.955 168.916 176.156C166.716 174.109 164.994 171.896 163.567 170.062Z" fill="#ADFF8C" stroke="#ADFF8C" stroke-width="3.125"/>
<path d="M159.979 160.202C160.3 160.372 160.61 160.536 160.91 160.697C161.159 160.227 161.424 159.737 161.697 159.234C161.957 158.755 162.223 158.263 162.487 157.768C163.355 156.137 164.248 154.367 165 152.492C166.51 148.727 167.391 144.676 166.432 140.652C164.876 134.126 159.65 126.207 149.939 123.731C145.965 127.66 142.893 134.717 144.746 144.439C145.669 149.284 148.781 152.847 152.384 155.578C155.02 157.577 157.738 159.016 159.979 160.202Z" fill="#ADFF8C" stroke="#ADFF8C" stroke-width="3.125"/>
<path d="M144.729 178.491C144.966 178.509 145.2 178.527 145.431 178.545C145.45 178.346 145.47 178.144 145.49 177.942C145.648 176.326 145.817 174.604 145.771 172.741C145.705 170.084 145.184 167.471 143.621 165.23C142.102 163.053 140.271 161.29 137.903 160.18C135.708 159.152 132.943 158.634 129.351 158.982C128.18 161.825 127.447 167.495 131.422 172.99C133.401 175.725 136.187 177.042 139.081 177.73C141.126 178.216 143.018 178.36 144.729 178.491Z" fill="#ADFF8C" stroke="#ADFF8C" stroke-width="3.125"/>
<path d="M152.129 171.758C135.039 190.605 130.026 207.858 129.766 213.848C129.723 214.824 130.059 216.633 132.988 217.266C135.918 217.898 138.066 216.777 138.359 214.824C139.38 208.02 143.34 193.73 156.816 175.371C170.293 157.012 183.379 148.32 184.355 146.27C185.332 144.219 183.444 143.145 182.109 143.73C179.31 145.033 169.623 152.464 152.129 171.758Z" fill="#ADFF8C"/>
</g>
<path d="M336.327 155.523H346.827V161.223C348.227 158.89 350.194 157.123 352.727 155.923C355.327 154.656 358.227 154.023 361.427 154.023C367.494 154.023 372.227 155.856 375.627 159.523C379.094 163.19 380.827 168.29 380.827 174.823V204.323H368.927V176.023C368.927 172.29 368.061 169.49 366.327 167.623C364.661 165.756 362.227 164.823 359.027 164.823C355.761 164.823 353.127 165.89 351.127 168.023C349.194 170.156 348.227 172.956 348.227 176.423V204.323H336.327V155.523Z" fill="#ADFF8C"/>
<path d="M303.046 155.523H313.546V164.023C314.146 161.29 315.379 159.19 317.246 157.723C319.179 156.256 321.646 155.523 324.646 155.523H333.646V166.023H323.346C320.479 166.023 318.346 166.79 316.946 168.323C315.613 169.79 314.946 172.056 314.946 175.123V204.323H303.046V155.523Z" fill="#ADFF8C"/>
<path d="M277.196 205.823C272.329 205.823 268.029 204.756 264.296 202.623C260.629 200.423 257.763 197.356 255.696 193.423C253.696 189.423 252.696 184.823 252.696 179.623C252.696 174.49 253.696 169.99 255.696 166.123C257.696 162.256 260.496 159.29 264.096 157.223C267.763 155.09 271.929 154.023 276.596 154.023C283.996 154.023 289.796 156.256 293.996 160.723C298.263 165.19 300.396 171.256 300.396 178.923C300.396 180.99 300.329 182.69 300.196 184.023H264.396C264.729 187.756 265.996 190.656 268.196 192.723C270.463 194.79 273.496 195.823 277.296 195.823C279.763 195.823 281.863 195.323 283.596 194.323C285.329 193.323 286.596 191.923 287.396 190.123H299.596C298.063 195.056 295.396 198.923 291.596 201.723C287.796 204.456 282.996 205.823 277.196 205.823ZM288.396 174.823V174.523C288.396 171.256 287.363 168.623 285.296 166.623C283.229 164.623 280.329 163.623 276.596 163.623C273.063 163.623 270.196 164.656 267.996 166.723C265.796 168.723 264.596 171.423 264.396 174.823H288.396Z" fill="#ADFF8C"/>
<mask id="path-10-outside-1_1_31" maskUnits="userSpaceOnUse" x="219.605" y="133.421" width="45" height="72" fill="black">
<rect fill="white" x="219.605" y="133.421" width="45" height="72"/>
<path fill-rule="evenodd" clip-rule="evenodd" d="M236.805 138.021C234.338 140.421 233.105 143.855 233.105 148.321V155.621H220.605V166.121H233.105V204.421H245.005V166.121H252.23C252.737 164.732 253.378 163.381 254.184 162.172C256.063 159.353 258.101 157.235 260.417 155.621H245.005V149.621C245.005 146.488 246.671 144.921 250.005 144.921H263.705V134.421H247.305C242.838 134.421 239.338 135.621 236.805 138.021Z"/>
</mask>
<path fill-rule="evenodd" clip-rule="evenodd" d="M236.805 138.021C234.338 140.421 233.105 143.855 233.105 148.321V155.621H220.605V166.121H233.105V204.421H245.005V166.121H252.23C252.737 164.732 253.378 163.381 254.184 162.172C256.063 159.353 258.101 157.235 260.417 155.621H245.005V149.621C245.005 146.488 246.671 144.921 250.005 144.921H263.705V134.421H247.305C242.838 134.421 239.338 135.621 236.805 138.021Z" fill="#ADFF8C"/>
<path d="M236.805 138.021L236.67 137.88L236.668 137.881L236.805 138.021ZM233.105 155.621V155.817H233.3V155.621H233.105ZM220.605 155.621V155.426H220.409V155.621H220.605ZM220.605 166.121H220.409V166.317H220.605V166.121ZM233.105 166.121H233.3V165.926H233.105V166.121ZM233.105 204.421H232.909V204.617H233.105V204.421ZM245.005 204.421V204.617H245.2V204.421H245.005ZM245.005 166.121V165.926H244.809V166.121H245.005ZM252.23 166.121V166.317H252.367L252.413 166.188L252.23 166.121ZM254.184 162.172L254.021 162.064L254.021 162.064L254.184 162.172ZM260.417 155.621L260.528 155.782L261.039 155.426H260.417V155.621ZM245.005 155.621H244.809V155.817H245.005V155.621ZM263.705 144.921V145.117H263.9V144.921H263.705ZM263.705 134.421H263.9V134.226H263.705V134.421ZM233.3 148.321C233.3 143.891 234.522 140.514 236.941 138.161L236.668 137.881C234.154 140.328 232.909 143.818 232.909 148.321H233.3ZM233.3 155.621V148.321H232.909V155.621H233.3ZM220.605 155.817H233.105V155.426H220.605V155.817ZM220.8 166.121V155.621H220.409V166.121H220.8ZM233.105 165.926H220.605V166.317H233.105V165.926ZM233.3 204.421V166.121H232.909V204.421H233.3ZM245.005 204.226H233.105V204.617H245.005V204.226ZM244.809 166.121V204.421H245.2V166.121H244.809ZM252.23 165.926H245.005V166.317H252.23V165.926ZM254.021 162.064C253.205 163.288 252.557 164.654 252.046 166.054L252.413 166.188C252.916 164.81 253.551 163.473 254.346 162.281L254.021 162.064ZM260.305 155.461C257.967 157.09 255.912 159.227 254.021 162.064L254.346 162.281C256.214 159.479 258.236 157.379 260.528 155.782L260.305 155.461ZM245.005 155.817H260.417V155.426H245.005V155.817ZM244.809 149.621V155.621H245.2V149.621H244.809ZM250.005 144.726C248.311 144.726 247.004 145.124 246.121 145.954C245.235 146.786 244.809 148.021 244.809 149.621H245.2C245.2 148.088 245.607 146.973 246.388 146.239C247.172 145.502 248.365 145.117 250.005 145.117V144.726ZM263.705 144.726H250.005V145.117H263.705V144.726ZM263.509 134.421V144.921H263.9V134.421H263.509ZM247.305 134.617H263.705V134.226H247.305V134.617ZM236.939 138.163C239.427 135.806 242.873 134.617 247.305 134.617V134.226C242.803 134.226 239.249 135.436 236.67 137.88L236.939 138.163Z" fill="#ADFF8C" mask="url(#path-10-outside-1_1_31)"/>
<path opacity="0.67" d="M125.22 267H132.6V309H125.22V267ZM138.431 279.72H144.731V283.14C145.571 281.74 146.751 280.68 148.271 279.96C149.831 279.2 151.571 278.82 153.491 278.82C157.131 278.82 159.971 279.92 162.011 282.12C164.091 284.32 165.131 287.38 165.131 291.3V309H157.991V292.02C157.991 289.78 157.471 288.1 156.431 286.98C155.431 285.86 153.971 285.3 152.051 285.3C150.091 285.3 148.511 285.94 147.311 287.22C146.151 288.5 145.571 290.18 145.571 292.26V309H138.431V279.72ZM170.235 279.72H176.535V283.2C177.455 281.84 178.755 280.78 180.435 280.02C182.155 279.22 184.075 278.82 186.195 278.82C188.955 278.82 191.395 279.48 193.515 280.8C195.635 282.08 197.275 283.9 198.435 286.26C199.635 288.58 200.235 291.28 200.235 294.36C200.235 297.44 199.635 300.16 198.435 302.52C197.275 304.84 195.635 306.66 193.515 307.98C191.395 309.26 188.955 309.9 186.195 309.9C184.315 309.9 182.595 309.58 181.035 308.94C179.475 308.26 178.255 307.32 177.375 306.12V319.8H170.235V279.72ZM177.255 294.36C177.255 297.08 177.975 299.28 179.415 300.96C180.855 302.6 182.735 303.42 185.055 303.42C187.375 303.42 189.255 302.58 190.695 300.9C192.135 299.22 192.855 297.04 192.855 294.36C192.855 291.68 192.135 289.5 190.695 287.82C189.255 286.14 187.375 285.3 185.055 285.3C182.735 285.3 180.855 286.14 179.415 287.82C177.975 289.46 177.255 291.64 177.255 294.36ZM215.067 309.9C211.467 309.9 208.647 308.8 206.607 306.6C204.567 304.4 203.547 301.34 203.547 297.42V279.72H210.687V296.7C210.687 301.18 212.607 303.42 216.447 303.42C218.367 303.42 219.887 302.8 221.007 301.56C222.167 300.28 222.747 298.58 222.747 296.46V279.72H229.887V309H223.587V306.18C222.627 307.38 221.407 308.3 219.927 308.94C218.447 309.58 216.827 309.9 215.067 309.9ZM246.877 309C244.277 309 242.377 308.42 241.177 307.26C239.977 306.1 239.377 304.2 239.377 301.56V286.02H231.877V279.72H239.377V271.14H246.517V279.72H255.457V286.02H246.517V299.94C246.517 300.9 246.717 301.6 247.117 302.04C247.557 302.48 248.277 302.7 249.277 302.7H255.457V309H246.877ZM267.741 313.44H273.441C274.281 313.44 274.941 313.28 275.421 312.96C275.941 312.64 276.361 312.14 276.681 311.46L278.781 306.78L266.721 279.72H274.881L282.621 298.62L290.301 279.72H298.281L282.441 315.24C281.761 316.84 280.881 318 279.801 318.72C278.721 319.44 277.181 319.8 275.181 319.8H267.741V313.44ZM312.053 309.9C309.093 309.9 306.453 309.26 304.133 307.98C301.813 306.66 300.013 304.84 298.733 302.52C297.453 300.16 296.813 297.44 296.813 294.36C296.813 291.28 297.453 288.58 298.733 286.26C300.013 283.9 301.813 282.08 304.133 280.8C306.453 279.48 309.093 278.82 312.053 278.82C315.053 278.82 317.713 279.48 320.033 280.8C322.353 282.08 324.153 283.9 325.433 286.26C326.713 288.58 327.353 291.28 327.353 294.36C327.353 297.44 326.713 300.16 325.433 302.52C324.153 304.84 322.353 306.66 320.033 307.98C317.713 309.26 315.053 309.9 312.053 309.9ZM304.193 294.36C304.193 297.08 304.913 299.28 306.353 300.96C307.793 302.6 309.693 303.42 312.053 303.42C314.413 303.42 316.313 302.6 317.753 300.96C319.233 299.28 319.973 297.08 319.973 294.36C319.973 291.64 319.233 289.46 317.753 287.82C316.313 286.14 314.413 285.3 312.053 285.3C309.693 285.3 307.793 286.14 306.353 287.82C304.913 289.46 304.193 291.64 304.193 294.36ZM342.157 309.9C338.557 309.9 335.737 308.8 333.697 306.6C331.657 304.4 330.637 301.34 330.637 297.42V279.72H337.777V296.7C337.777 301.18 339.697 303.42 343.537 303.42C345.457 303.42 346.977 302.8 348.097 301.56C349.257 300.28 349.837 298.58 349.837 296.46V279.72H356.977V309H350.677V306.18C349.717 307.38 348.497 308.3 347.017 308.94C345.537 309.58 343.917 309.9 342.157 309.9ZM362.282 279.72H368.582V284.82C368.942 283.18 369.682 281.92 370.802 281.04C371.962 280.16 373.442 279.72 375.242 279.72H380.642V286.02H374.462C372.742 286.02 371.462 286.48 370.622 287.4C369.822 288.28 369.422 289.64 369.422 291.48V309H362.282V279.72ZM412.953 309.9C409.153 309.9 405.813 309.06 402.933 307.38C400.053 305.7 397.813 303.22 396.213 299.94C394.613 296.62 393.813 292.64 393.813 288C393.813 283.36 394.613 279.4 396.213 276.12C397.813 272.8 400.053 270.3 402.933 268.62C405.813 266.94 409.153 266.1 412.953 266.1C416.753 266.1 420.093 266.94 422.973 268.62C425.853 270.3 428.093 272.78 429.693 276.06C431.293 279.34 432.093 283.32 432.093 288C432.093 292.68 431.293 296.66 429.693 299.94C428.093 303.22 425.853 305.7 422.973 307.38C420.093 309.06 416.753 309.9 412.953 309.9ZM401.433 288C401.433 292.92 402.473 296.66 404.553 299.22C406.673 301.74 409.473 303 412.953 303C416.473 303 419.273 301.74 421.353 299.22C423.433 296.66 424.473 292.92 424.473 288C424.473 283.08 423.433 279.36 421.353 276.84C419.273 274.28 416.473 273 412.953 273C409.473 273 406.673 274.28 404.553 276.84C402.473 279.36 401.433 283.08 401.433 288ZM436.661 279.72H442.961V283.2C443.881 281.84 445.181 280.78 446.861 280.02C448.581 279.22 450.501 278.82 452.621 278.82C455.381 278.82 457.821 279.48 459.941 280.8C462.061 282.08 463.701 283.9 464.861 286.26C466.061 288.58 466.661 291.28 466.661 294.36C466.661 297.44 466.061 300.16 464.861 302.52C463.701 304.84 462.061 306.66 459.941 307.98C457.821 309.26 455.381 309.9 452.621 309.9C450.741 309.9 449.021 309.58 447.461 308.94C445.901 308.26 444.681 307.32 443.801 306.12V319.8H436.661V279.72ZM443.681 294.36C443.681 297.08 444.401 299.28 445.841 300.96C447.281 302.6 449.161 303.42 451.481 303.42C453.801 303.42 455.681 302.58 457.121 300.9C458.561 299.22 459.281 297.04 459.281 294.36C459.281 291.68 458.561 289.5 457.121 287.82C455.681 286.14 453.801 285.3 451.481 285.3C449.161 285.3 447.281 286.14 445.841 287.82C444.401 289.46 443.681 291.64 443.681 294.36ZM483.415 309.9C480.495 309.9 477.915 309.26 475.675 307.98C473.475 306.66 471.755 304.82 470.515 302.46C469.315 300.06 468.715 297.3 468.715 294.18C468.715 291.1 469.315 288.4 470.515 286.08C471.715 283.76 473.395 281.98 475.555 280.74C477.755 279.46 480.255 278.82 483.055 278.82C487.495 278.82 490.975 280.16 493.495 282.84C496.055 285.52 497.335 289.16 497.335 293.76C497.335 295 497.295 296.02 497.215 296.82H475.735C475.935 299.06 476.695 300.8 478.015 302.04C479.375 303.28 481.195 303.9 483.475 303.9C484.955 303.9 486.215 303.6 487.255 303C488.295 302.4 489.055 301.56 489.535 300.48H496.855C495.935 303.44 494.335 305.76 492.055 307.44C489.775 309.08 486.895 309.9 483.415 309.9ZM490.135 291.3V291.12C490.135 289.16 489.515 287.58 488.275 286.38C487.035 285.18 485.295 284.58 483.055 284.58C480.935 284.58 479.215 285.2 477.895 286.44C476.575 287.64 475.855 289.26 475.735 291.3H490.135ZM500.857 279.72H507.157V283.14C507.997 281.74 509.177 280.68 510.697 279.96C512.257 279.2 513.997 278.82 515.917 278.82C519.557 278.82 522.397 279.92 524.437 282.12C526.517 284.32 527.557 287.38 527.557 291.3V309H520.417V292.02C520.417 289.78 519.897 288.1 518.857 286.98C517.857 285.86 516.397 285.3 514.477 285.3C512.517 285.3 510.937 285.94 509.737 287.22C508.577 288.5 507.997 290.18 507.997 292.26V309H500.857V279.72ZM544.958 267H555.098L570.578 309H562.478L558.458 297.54H541.478L537.458 309H529.418L544.958 267ZM556.118 290.82L549.998 273.36L543.878 290.82H556.118ZM573.509 267H591.329C595.729 267 599.209 268.14 601.769 270.42C604.329 272.7 605.609 275.84 605.609 279.84C605.609 283.84 604.329 287 601.769 289.32C599.209 291.6 595.729 292.74 591.329 292.74H580.889V309H573.509V267ZM591.029 285.84C593.269 285.84 595.009 285.32 596.249 284.28C597.489 283.2 598.109 281.72 598.109 279.84C598.109 277.96 597.489 276.5 596.249 275.46C595.009 274.42 593.269 273.9 591.029 273.9H580.889V285.84H591.029ZM609.708 267H617.088V309H609.708V267ZM623.562 299.88H632.022V309H623.562V299.88ZM667.789 309.9C663.989 309.9 660.649 309.06 657.769 307.38C654.889 305.7 652.649 303.22 651.049 299.94C649.449 296.62 648.649 292.64 648.649 288C648.649 283.36 649.449 279.4 651.049 276.12C652.649 272.8 654.889 270.3 657.769 268.62C660.649 266.94 663.989 266.1 667.789 266.1C671.589 266.1 674.929 266.94 677.809 268.62C680.689 270.3 682.929 272.78 684.529 276.06C686.129 279.34 686.929 283.32 686.929 288C686.929 292.68 686.129 296.66 684.529 299.94C682.929 303.22 680.689 305.7 677.809 307.38C674.929 309.06 671.589 309.9 667.789 309.9ZM656.269 288C656.269 292.92 657.309 296.66 659.389 299.22C661.509 301.74 664.309 303 667.789 303C671.309 303 674.109 301.74 676.189 299.22C678.269 296.66 679.309 292.92 679.309 288C679.309 283.08 678.269 279.36 676.189 276.84C674.109 274.28 671.309 273 667.789 273C664.309 273 661.509 274.28 659.389 276.84C657.309 279.36 656.269 283.08 656.269 288ZM702.356 309.9C698.756 309.9 695.936 308.8 693.896 306.6C691.856 304.4 690.836 301.34 690.836 297.42V279.72H697.976V296.7C697.976 301.18 699.896 303.42 703.736 303.42C705.656 303.42 707.176 302.8 708.296 301.56C709.456 300.28 710.036 298.58 710.036 296.46V279.72H717.176V309H710.876V306.18C709.916 307.38 708.696 308.3 707.216 308.94C705.736 309.58 704.116 309.9 702.356 309.9ZM734.166 309C731.566 309 729.666 308.42 728.466 307.26C727.266 306.1 726.666 304.2 726.666 301.56V286.02H719.166V279.72H726.666V271.14H733.806V279.72H742.746V286.02H733.806V299.94C733.806 300.9 734.006 301.6 734.406 302.04C734.846 302.48 735.566 302.7 736.566 302.7H742.746V309H734.166ZM745.614 279.72H751.914V283.2C752.834 281.84 754.134 280.78 755.814 280.02C757.534 279.22 759.454 278.82 761.574 278.82C764.334 278.82 766.774 279.48 768.894 280.8C771.014 282.08 772.654 283.9 773.814 286.26C775.014 288.58 775.614 291.28 775.614 294.36C775.614 297.44 775.014 300.16 773.814 302.52C772.654 304.84 771.014 306.66 768.894 307.98C766.774 309.26 764.334 309.9 761.574 309.9C759.694 309.9 757.974 309.58 756.414 308.94C754.854 308.26 753.634 307.32 752.754 306.12V319.8H745.614V279.72ZM752.634 294.36C752.634 297.08 753.354 299.28 754.794 300.96C756.234 302.6 758.114 303.42 760.434 303.42C762.754 303.42 764.634 302.58 766.074 300.9C767.514 299.22 768.234 297.04 768.234 294.36C768.234 291.68 767.514 289.5 766.074 287.82C764.634 286.14 762.754 285.3 760.434 285.3C758.114 285.3 756.234 286.14 754.794 287.82C753.354 289.46 752.634 291.64 752.634 294.36ZM790.446 309.9C786.846 309.9 784.026 308.8 781.986 306.6C779.946 304.4 778.926 301.34 778.926 297.42V279.72H786.066V296.7C786.066 301.18 787.986 303.42 791.826 303.42C793.746 303.42 795.266 302.8 796.386 301.56C797.546 300.28 798.126 298.58 798.126 296.46V279.72H805.266V309H798.966V306.18C798.006 307.38 796.786 308.3 795.306 308.94C793.826 309.58 792.206 309.9 790.446 309.9ZM822.256 309C819.656 309 817.756 308.42 816.556 307.26C815.356 306.1 814.756 304.2 814.756 301.56V286.02H807.256V279.72H814.756V271.14H821.896V279.72H830.836V286.02H821.896V299.94C821.896 300.9 822.096 301.6 822.496 302.04C822.936 302.48 823.656 302.7 824.656 302.7H830.836V309H822.256ZM860.88 309.9C855.56 309.9 851.4 308.68 848.4 306.24C845.4 303.76 843.86 300.34 843.78 295.98H851.34C851.38 298.22 852.24 300 853.92 301.32C855.64 302.64 857.96 303.3 860.88 303.3C863.44 303.3 865.46 302.72 866.94 301.56C868.46 300.36 869.22 298.76 869.22 296.76C869.22 295.12 868.68 293.84 867.6 292.92C866.52 291.96 864.88 291.34 862.68 291.06L857.52 290.34C849.24 289.26 845.1 285.34 845.1 278.58C845.1 276.1 845.74 273.92 847.02 272.04C848.3 270.12 850.1 268.66 852.42 267.66C854.78 266.62 857.48 266.1 860.52 266.1C865.36 266.1 869.16 267.2 871.92 269.4C874.72 271.6 876.16 274.58 876.24 278.34H868.74C868.66 276.54 867.88 275.14 866.4 274.14C864.96 273.1 863 272.58 860.52 272.58C858.16 272.58 856.26 273.08 854.82 274.08C853.42 275.08 852.72 276.42 852.72 278.1C852.72 279.62 853.28 280.82 854.4 281.7C855.56 282.54 857.34 283.12 859.74 283.44L864.6 284.1C872.76 285.1 876.84 289.16 876.84 296.28C876.84 299.04 876.2 301.44 874.92 303.48C873.64 305.52 871.8 307.1 869.4 308.22C867 309.34 864.16 309.9 860.88 309.9ZM882.04 267H897.22C901.26 267 904.74 267.84 907.66 269.52C910.62 271.2 912.88 273.62 914.44 276.78C916.04 279.94 916.84 283.68 916.84 288C916.84 292.28 916.06 296 914.5 299.16C912.94 302.32 910.68 304.76 907.72 306.48C904.76 308.16 901.26 309 897.22 309H882.04V267ZM897.64 302.22C901.36 302.22 904.22 300.94 906.22 298.38C908.22 295.82 909.22 292.36 909.22 288C909.22 283.64 908.22 280.18 906.22 277.62C904.22 275.06 901.36 273.78 897.64 273.78H889.42V302.22H897.64ZM933.804 290.76H929.604V309H922.224V267H929.604V283.2H933.684L947.304 267H956.364L939.864 286.68L956.364 309H947.304L933.804 290.76ZM967.732 309.9C963.692 309.9 960.532 309.1 958.252 307.5C956.012 305.9 954.812 303.56 954.652 300.48H962.032C962.272 302.92 964.252 304.14 967.972 304.14C969.572 304.14 970.832 303.82 971.752 303.18C972.712 302.54 973.192 301.68 973.192 300.6C973.192 298.8 971.852 297.78 969.172 297.54L964.492 297.06C961.732 296.74 959.552 295.82 957.952 294.3C956.392 292.74 955.612 290.72 955.612 288.24C955.612 285.32 956.692 283.02 958.852 281.34C961.052 279.66 964.012 278.82 967.732 278.82C971.492 278.82 974.452 279.62 976.612 281.22C978.812 282.78 979.992 285.06 980.152 288.06H973.012C972.972 286.9 972.472 286.04 971.512 285.48C970.592 284.92 969.292 284.64 967.612 284.64C966.092 284.64 964.872 284.94 963.952 285.54C963.072 286.1 962.632 286.88 962.632 287.88C962.632 288.76 962.972 289.44 963.652 289.92C964.372 290.4 965.472 290.74 966.952 290.94L971.692 291.48C974.452 291.8 976.592 292.74 978.112 294.3C979.632 295.82 980.392 297.8 980.392 300.24C980.392 303.2 979.252 305.56 976.972 307.32C974.692 309.04 971.612 309.9 967.732 309.9ZM1004.76 309.9C1001.36 309.9 998.656 309.08 996.656 307.44C994.656 305.76 993.656 303.5 993.656 300.66C993.656 297.9 994.556 295.68 996.356 294C998.196 292.28 1000.86 291.3 1004.34 291.06L1012.5 290.58V289.14C1012.5 287.58 1012.1 286.46 1011.3 285.78C1010.5 285.06 1009.24 284.7 1007.52 284.7C1005.84 284.7 1004.58 284.96 1003.74 285.48C1002.9 286 1002.38 286.86 1002.18 288.06H995.096C995.696 281.9 999.996 278.82 1008 278.82C1011.56 278.82 1014.32 279.7 1016.28 281.46C1018.28 283.18 1019.28 285.6 1019.28 288.72V302.34C1019.28 302.94 1019.58 303.24 1020.18 303.24H1022.76V309H1017.36C1016.32 309 1015.5 308.74 1014.9 308.22C1014.34 307.66 1014.06 306.88 1014.06 305.88V305.64C1013.22 306.96 1011.98 308 1010.34 308.76C1008.74 309.52 1006.88 309.9 1004.76 309.9ZM1000.8 300.42C1000.8 301.54 1001.22 302.42 1002.06 303.06C1002.94 303.7 1004.16 304.02 1005.72 304.02C1007.76 304.02 1009.4 303.48 1010.64 302.4C1011.88 301.28 1012.5 299.68 1012.5 297.6V295.98L1005.42 296.58C1003.9 296.7 1002.74 297.12 1001.94 297.84C1001.18 298.52 1000.8 299.38 1000.8 300.42ZM1025.4 279.72H1031.7V283.14C1032.54 281.74 1033.72 280.68 1035.24 279.96C1036.8 279.2 1038.54 278.82 1040.46 278.82C1044.1 278.82 1046.94 279.92 1048.98 282.12C1051.06 284.32 1052.1 287.38 1052.1 291.3V309H1044.96V292.02C1044.96 289.78 1044.44 288.1 1043.4 286.98C1042.4 285.86 1040.94 285.3 1039.02 285.3C1037.06 285.3 1035.48 285.94 1034.28 287.22C1033.12 288.5 1032.54 290.18 1032.54 292.26V309H1025.4V279.72ZM1069.5 309.9C1066.74 309.9 1064.3 309.26 1062.18 307.98C1060.06 306.66 1058.4 304.84 1057.2 302.52C1056.04 300.16 1055.46 297.44 1055.46 294.36C1055.46 291.28 1056.04 288.58 1057.2 286.26C1058.4 283.9 1060.06 282.08 1062.18 280.8C1064.3 279.48 1066.74 278.82 1069.5 278.82C1071.38 278.82 1073.08 279.16 1074.6 279.84C1076.16 280.48 1077.38 281.4 1078.26 282.6V267H1085.4V309H1079.1V305.52C1078.18 306.88 1076.86 307.96 1075.14 308.76C1073.46 309.52 1071.58 309.9 1069.5 309.9ZM1062.84 294.36C1062.84 297.08 1063.56 299.28 1065 300.96C1066.44 302.6 1068.32 303.42 1070.64 303.42C1072.96 303.42 1074.82 302.6 1076.22 300.96C1077.66 299.28 1078.38 297.08 1078.38 294.36C1078.38 291.64 1077.66 289.46 1076.22 287.82C1074.82 286.14 1072.96 285.3 1070.64 285.3C1068.32 285.3 1066.44 286.14 1065 287.82C1063.56 289.46 1062.84 291.64 1062.84 294.36ZM1104.13 267H1119.31C1123.35 267 1126.83 267.84 1129.75 269.52C1132.71 271.2 1134.97 273.62 1136.53 276.78C1138.13 279.94 1138.93 283.68 1138.93 288C1138.93 292.28 1138.15 296 1136.59 299.16C1135.03 302.32 1132.77 304.76 1129.81 306.48C1126.85 308.16 1123.35 309 1119.31 309H1104.13V267ZM1119.73 302.22C1123.45 302.22 1126.31 300.94 1128.31 298.38C1130.31 295.82 1131.31 292.36 1131.31 288C1131.31 283.64 1130.31 280.18 1128.31 277.62C1126.31 275.06 1123.45 273.78 1119.73 273.78H1111.51V302.22H1119.73ZM1156.86 309.9C1153.9 309.9 1151.26 309.26 1148.94 307.98C1146.62 306.66 1144.82 304.84 1143.54 302.52C1142.26 300.16 1141.62 297.44 1141.62 294.36C1141.62 291.28 1142.26 288.58 1143.54 286.26C1144.82 283.9 1146.62 282.08 1148.94 280.8C1151.26 279.48 1153.9 278.82 1156.86 278.82C1159.86 278.82 1162.52 279.48 1164.84 280.8C1167.16 282.08 1168.96 283.9 1170.24 286.26C1171.52 288.58 1172.16 291.28 1172.16 294.36C1172.16 297.44 1171.52 300.16 1170.24 302.52C1168.96 304.84 1167.16 306.66 1164.84 307.98C1162.52 309.26 1159.86 309.9 1156.86 309.9ZM1149 294.36C1149 297.08 1149.72 299.28 1151.16 300.96C1152.6 302.6 1154.5 303.42 1156.86 303.42C1159.22 303.42 1161.12 302.6 1162.56 300.96C1164.04 299.28 1164.78 297.08 1164.78 294.36C1164.78 291.64 1164.04 289.46 1162.56 287.82C1161.12 286.14 1159.22 285.3 1156.86 285.3C1154.5 285.3 1152.6 286.14 1151.16 287.82C1149.72 289.46 1149 291.64 1149 294.36ZM1188.7 309.9C1185.78 309.9 1183.22 309.24 1181.02 307.92C1178.82 306.56 1177.12 304.72 1175.92 302.4C1174.76 300.04 1174.18 297.4 1174.18 294.48C1174.18 291.44 1174.8 288.74 1176.04 286.38C1177.28 283.98 1179.02 282.12 1181.26 280.8C1183.54 279.48 1186.14 278.82 1189.06 278.82C1192.82 278.82 1195.92 279.82 1198.36 281.82C1200.8 283.82 1202.18 286.44 1202.5 289.68H1195.24C1194.96 288.44 1194.28 287.4 1193.2 286.56C1192.12 285.72 1190.72 285.3 1189 285.3C1186.72 285.3 1184.9 286.12 1183.54 287.76C1182.22 289.4 1181.56 291.6 1181.56 294.36C1181.56 297.16 1182.22 299.38 1183.54 301.02C1184.9 302.62 1186.7 303.42 1188.94 303.42C1190.62 303.42 1192.02 302.96 1193.14 302.04C1194.3 301.12 1195.04 299.92 1195.36 298.44H1202.62C1202.34 300.48 1201.6 302.38 1200.4 304.14C1199.24 305.9 1197.66 307.3 1195.66 308.34C1193.66 309.38 1191.34 309.9 1188.7 309.9ZM1216.24 309.9C1212.2 309.9 1209.04 309.1 1206.76 307.5C1204.52 305.9 1203.32 303.56 1203.16 300.48H1210.54C1210.78 302.92 1212.76 304.14 1216.48 304.14C1218.08 304.14 1219.34 303.82 1220.26 303.18C1221.22 302.54 1221.7 301.68 1221.7 300.6C1221.7 298.8 1220.36 297.78 1217.68 297.54L1213 297.06C1210.24 296.74 1208.06 295.82 1206.46 294.3C1204.9 292.74 1204.12 290.72 1204.12 288.24C1204.12 285.32 1205.2 283.02 1207.36 281.34C1209.56 279.66 1212.52 278.82 1216.24 278.82C1220 278.82 1222.96 279.62 1225.12 281.22C1227.32 282.78 1228.5 285.06 1228.66 288.06H1221.52C1221.48 286.9 1220.98 286.04 1220.02 285.48C1219.1 284.92 1217.8 284.64 1216.12 284.64C1214.6 284.64 1213.38 284.94 1212.46 285.54C1211.58 286.1 1211.14 286.88 1211.14 287.88C1211.14 288.76 1211.48 289.44 1212.16 289.92C1212.88 290.4 1213.98 290.74 1215.46 290.94L1220.2 291.48C1222.96 291.8 1225.1 292.74 1226.62 294.3C1228.14 295.82 1228.9 297.8 1228.9 300.24C1228.9 303.2 1227.76 305.56 1225.48 307.32C1223.2 309.04 1220.12 309.9 1216.24 309.9ZM1232.56 299.88H1241.02V309H1232.56V299.88Z" fill="white"/>
<path d="M133.398 380.2H172.36C182.729 380.2 191.661 382.356 199.156 386.668C206.753 390.98 212.554 397.191 216.558 405.302C220.665 413.413 222.718 423.012 222.718 434.1C222.718 445.085 220.716 454.633 216.712 462.744C212.708 470.855 206.907 477.117 199.31 481.532C191.713 485.844 182.729 488 172.36 488H133.398V380.2ZM173.438 470.598C182.986 470.598 190.327 467.313 195.46 460.742C200.593 454.171 203.16 445.291 203.16 434.1C203.16 422.909 200.593 414.029 195.46 407.458C190.327 400.887 182.986 397.602 173.438 397.602H152.34V470.598H173.438ZM267.336 490.31C259.841 490.31 253.219 488.667 247.47 485.382C241.823 481.994 237.409 477.271 234.226 471.214C231.146 465.054 229.606 457.97 229.606 449.962C229.606 442.057 231.146 435.127 234.226 429.172C237.306 423.217 241.618 418.649 247.162 415.466C252.809 412.181 259.225 410.538 266.412 410.538C277.808 410.538 286.74 413.977 293.208 420.856C299.779 427.735 303.064 437.077 303.064 448.884C303.064 452.067 302.961 454.685 302.756 456.738H247.624C248.137 462.487 250.088 466.953 253.476 470.136C256.967 473.319 261.638 474.91 267.49 474.91C271.289 474.91 274.523 474.14 277.192 472.6C279.861 471.06 281.812 468.904 283.044 466.132H301.832C299.471 473.729 295.364 479.684 289.512 483.996C283.66 488.205 276.268 490.31 267.336 490.31ZM284.584 442.57V442.108C284.584 437.077 282.993 433.022 279.81 429.942C276.627 426.862 272.161 425.322 266.412 425.322C260.971 425.322 256.556 426.913 253.168 430.096C249.78 433.176 247.932 437.334 247.624 442.57H284.584ZM328.121 488C322.475 488 318.368 486.871 315.801 484.612C313.235 482.251 311.951 478.401 311.951 473.062V380.2H330.277V466.748C330.277 468.493 330.637 469.777 331.355 470.598C332.177 471.419 333.511 471.83 335.359 471.83H344.137V488H328.121ZM350.722 412.848H369.048V488H350.722V412.848ZM350.106 380.97H369.818V399.758H350.106V380.97ZM373.174 412.848H393.656L414.446 468.134L435.082 412.848H455.41L424.764 488H403.82L373.174 412.848ZM490.395 490.31C482.901 490.31 476.279 488.667 470.529 485.382C464.883 481.994 460.468 477.271 457.285 471.214C454.205 465.054 452.665 457.97 452.665 449.962C452.665 442.057 454.205 435.127 457.285 429.172C460.365 423.217 464.677 418.649 470.221 415.466C475.868 412.181 482.285 410.538 489.471 410.538C500.867 410.538 509.799 413.977 516.267 420.856C522.838 427.735 526.123 437.077 526.123 448.884C526.123 452.067 526.021 454.685 525.815 456.738H470.683C471.197 462.487 473.147 466.953 476.535 470.136C480.026 473.319 484.697 474.91 490.549 474.91C494.348 474.91 497.582 474.14 500.251 472.6C502.921 471.06 504.871 468.904 506.103 466.132H524.891C522.53 473.729 518.423 479.684 512.571 483.996C506.719 488.205 499.327 490.31 490.395 490.31ZM507.643 442.57V442.108C507.643 437.077 506.052 433.022 502.869 429.942C499.687 426.862 495.221 425.322 489.471 425.322C484.03 425.322 479.615 426.913 476.227 430.096C472.839 433.176 470.991 437.334 470.683 442.57H507.643ZM535.161 412.848H551.331V425.938C552.255 421.729 554.154 418.495 557.029 416.236C560.006 413.977 563.805 412.848 568.425 412.848H582.285V429.018H566.423C562.008 429.018 558.723 430.199 556.567 432.56C554.514 434.819 553.487 438.309 553.487 443.032V488H535.161V412.848ZM657.669 490.31C644.015 490.31 633.337 487.179 625.637 480.916C617.937 474.551 613.985 465.773 613.779 454.582H633.183C633.286 460.331 635.493 464.9 639.805 468.288C644.22 471.676 650.175 473.37 657.669 473.37C664.24 473.37 669.425 471.881 673.223 468.904C677.125 465.824 679.075 461.717 679.075 456.584C679.075 452.375 677.689 449.089 674.917 446.728C672.145 444.264 667.936 442.673 662.289 441.954L649.045 440.106C627.793 437.334 617.167 427.273 617.167 409.922C617.167 403.557 618.81 397.961 622.095 393.136C625.381 388.208 630.001 384.461 635.955 381.894C642.013 379.225 648.943 377.89 656.745 377.89C669.168 377.89 678.921 380.713 686.005 386.36C693.192 392.007 696.888 399.655 697.093 409.306H677.843C677.638 404.686 675.636 401.093 671.837 398.526C668.141 395.857 663.111 394.522 656.745 394.522C650.688 394.522 645.811 395.805 642.115 398.372C638.522 400.939 636.725 404.378 636.725 408.69C636.725 412.591 638.163 415.671 641.037 417.93C644.015 420.086 648.583 421.575 654.743 422.396L667.217 424.09C688.161 426.657 698.633 437.077 698.633 455.352C698.633 462.436 696.991 468.596 693.705 473.832C690.42 479.068 685.697 483.123 679.537 485.998C673.377 488.873 666.088 490.31 657.669 490.31ZM737.258 488C730.585 488 725.708 486.511 722.628 483.534C719.548 480.557 718.008 475.68 718.008 468.904V429.018H698.758V412.848H718.008V390.826H736.334V412.848H759.28V429.018H736.334V464.746C736.334 467.21 736.848 469.007 737.874 470.136C739.004 471.265 740.852 471.83 743.418 471.83H759.28V488H737.258ZM766.642 412.848H782.812V425.938C783.736 421.729 785.636 418.495 788.51 416.236C791.488 413.977 795.286 412.848 799.906 412.848H813.766V429.018H797.904C793.49 429.018 790.204 430.199 788.048 432.56C785.995 434.819 784.968 438.309 784.968 443.032V488H766.642V412.848ZM817.896 412.848H836.222V488H817.896V412.848ZM817.28 380.97H836.992V399.758H817.28V380.97ZM851.102 412.848H867.272V421.78C869.633 418.289 872.97 415.569 877.282 413.618C881.696 411.565 886.624 410.538 892.066 410.538C899.15 410.538 905.412 412.232 910.854 415.62C916.295 418.905 920.504 423.577 923.482 429.634C926.562 435.589 928.102 442.519 928.102 450.424C928.102 458.329 926.562 465.311 923.482 471.368C920.504 477.323 916.295 481.994 910.854 485.382C905.412 488.667 899.15 490.31 892.066 490.31C887.24 490.31 882.826 489.489 878.822 487.846C874.818 486.101 871.686 483.688 869.428 480.608V515.72H851.102V412.848ZM869.12 450.424C869.12 457.405 870.968 463.052 874.664 467.364C878.36 471.573 883.185 473.678 889.14 473.678C895.094 473.678 899.92 471.522 903.616 467.21C907.312 462.898 909.16 457.303 909.16 450.424C909.16 443.545 907.312 437.95 903.616 433.638C899.92 429.326 895.094 427.17 889.14 427.17C883.185 427.17 878.36 429.326 874.664 433.638C870.968 437.847 869.12 443.443 869.12 450.424ZM971.104 490.31C963.609 490.31 956.987 488.667 951.238 485.382C945.591 481.994 941.177 477.271 937.994 471.214C934.914 465.054 933.374 457.97 933.374 449.962C933.374 442.057 934.914 435.127 937.994 429.172C941.074 423.217 945.386 418.649 950.93 415.466C956.577 412.181 962.993 410.538 970.18 410.538C981.576 410.538 990.508 413.977 996.976 420.856C1003.55 427.735 1006.83 437.077 1006.83 448.884C1006.83 452.067 1006.73 454.685 1006.52 456.738H951.392C951.905 462.487 953.856 466.953 957.244 470.136C960.735 473.319 965.406 474.91 971.258 474.91C975.057 474.91 978.291 474.14 980.96 472.6C983.629 471.06 985.58 468.904 986.812 466.132H1005.6C1003.24 473.729 999.132 479.684 993.28 483.996C987.428 488.205 980.036 490.31 971.104 490.31ZM988.352 442.57V442.108C988.352 437.077 986.761 433.022 983.578 429.942C980.395 426.862 975.929 425.322 970.18 425.322C964.739 425.322 960.324 426.913 956.936 430.096C953.548 433.176 951.7 437.334 951.392 442.57H988.352ZM1012.18 438.874H1060.39V456.276H1012.18V438.874ZM1085.7 488C1080.05 488 1075.95 486.871 1073.38 484.612C1070.81 482.251 1069.53 478.401 1069.53 473.062V380.2H1087.86V466.748C1087.86 468.493 1088.21 469.777 1088.93 470.598C1089.75 471.419 1091.09 471.83 1092.94 471.83H1101.72V488H1085.7ZM1139.75 490.31C1132.26 490.31 1125.64 488.667 1119.89 485.382C1114.24 481.994 1109.82 477.271 1106.64 471.214C1103.56 465.054 1102.02 457.97 1102.02 449.962C1102.02 442.057 1103.56 435.127 1106.64 429.172C1109.72 423.217 1114.03 418.649 1119.58 415.466C1125.22 412.181 1131.64 410.538 1138.83 410.538C1150.22 410.538 1159.16 413.977 1165.62 420.856C1172.19 427.735 1175.48 437.077 1175.48 448.884C1175.48 452.067 1175.38 454.685 1175.17 456.738H1120.04C1120.55 462.487 1122.5 466.953 1125.89 470.136C1129.38 473.319 1134.05 474.91 1139.91 474.91C1143.7 474.91 1146.94 474.14 1149.61 472.6C1152.28 471.06 1154.23 468.904 1155.46 466.132H1174.25C1171.89 473.729 1167.78 479.684 1161.93 483.996C1156.08 488.205 1148.68 490.31 1139.75 490.31ZM1157 442.57V442.108C1157 437.077 1155.41 433.022 1152.23 429.942C1149.04 426.862 1144.58 425.322 1138.83 425.322C1133.39 425.322 1128.97 426.913 1125.58 430.096C1122.2 433.176 1120.35 437.334 1120.04 442.57H1157ZM1172.71 412.848H1193.19L1213.98 468.134L1234.62 412.848H1254.95L1224.3 488H1203.36L1172.71 412.848ZM1289.93 490.31C1282.44 490.31 1275.82 488.667 1270.07 485.382C1264.42 481.994 1260 477.271 1256.82 471.214C1253.74 465.054 1252.2 457.97 1252.2 449.962C1252.2 442.057 1253.74 435.127 1256.82 429.172C1259.9 423.217 1264.21 418.649 1269.76 415.466C1275.4 412.181 1281.82 410.538 1289.01 410.538C1300.4 410.538 1309.34 413.977 1315.8 420.856C1322.37 427.735 1325.66 437.077 1325.66 448.884C1325.66 452.067 1325.56 454.685 1325.35 456.738H1270.22C1270.73 462.487 1272.68 466.953 1276.07 470.136C1279.56 473.319 1284.23 474.91 1290.09 474.91C1293.88 474.91 1297.12 474.14 1299.79 472.6C1302.46 471.06 1304.41 468.904 1305.64 466.132H1324.43C1322.07 473.729 1317.96 479.684 1312.11 483.996C1306.26 488.205 1298.86 490.31 1289.93 490.31ZM1307.18 442.57V442.108C1307.18 437.077 1305.59 433.022 1302.41 429.942C1299.22 426.862 1294.76 425.322 1289.01 425.322C1283.57 425.322 1279.15 426.913 1275.76 430.096C1272.38 433.176 1270.53 437.334 1270.22 442.57H1307.18ZM1350.72 488C1345.07 488 1340.96 486.871 1338.4 484.612C1335.83 482.251 1334.55 478.401 1334.55 473.062V380.2H1352.87V466.748C1352.87 468.493 1353.23 469.777 1353.95 470.598C1354.77 471.419 1356.11 471.83 1357.96 471.83H1366.73V488H1350.72ZM162.504 534.2H188.53L228.262 642H207.472L197.154 612.586H153.572L143.254 642H122.618L162.504 534.2ZM191.148 595.338L175.44 550.524L159.732 595.338H191.148ZM235.784 534.2H281.522C292.815 534.2 301.747 537.126 308.318 542.978C314.889 548.83 318.174 556.889 318.174 567.156C318.174 577.423 314.889 585.533 308.318 591.488C301.747 597.34 292.815 600.266 281.522 600.266H254.726V642H235.784V534.2ZM280.752 582.556C286.501 582.556 290.967 581.221 294.15 578.552C297.333 575.78 298.924 571.981 298.924 567.156C298.924 562.331 297.333 558.583 294.15 555.914C290.967 553.245 286.501 551.91 280.752 551.91H254.726V582.556H280.752ZM328.695 534.2H347.637V642H328.695V534.2ZM426.77 644.31C419.686 644.31 413.424 642.667 407.982 639.382C402.541 635.994 398.28 631.323 395.2 625.368C392.223 619.311 390.734 612.329 390.734 604.424C390.734 596.519 392.223 589.589 395.2 583.634C398.28 577.577 402.541 572.905 407.982 569.62C413.424 566.232 419.686 564.538 426.77 564.538C431.596 564.538 435.959 565.411 439.86 567.156C443.864 568.799 446.996 571.16 449.254 574.24V534.2H467.58V642H451.41V633.068C449.049 636.559 445.661 639.331 441.246 641.384C436.934 643.335 432.109 644.31 426.77 644.31ZM409.676 604.424C409.676 611.405 411.524 617.052 415.22 621.364C418.916 625.573 423.742 627.678 429.696 627.678C435.651 627.678 440.425 625.573 444.018 621.364C447.714 617.052 449.562 611.405 449.562 604.424C449.562 597.443 447.714 591.847 444.018 587.638C440.425 583.326 435.651 581.17 429.696 581.17C423.742 581.17 418.916 583.326 415.22 587.638C411.524 591.847 409.676 597.443 409.676 604.424ZM516.445 644.31C508.848 644.31 502.072 642.667 496.117 639.382C490.163 635.994 485.543 631.323 482.257 625.368C478.972 619.311 477.329 612.329 477.329 604.424C477.329 596.519 478.972 589.589 482.257 583.634C485.543 577.577 490.163 572.905 496.117 569.62C502.072 566.232 508.848 564.538 516.445 564.538C524.145 564.538 530.973 566.232 536.927 569.62C542.882 572.905 547.502 577.577 550.787 583.634C554.073 589.589 555.715 596.519 555.715 604.424C555.715 612.329 554.073 619.311 550.787 625.368C547.502 631.323 542.882 635.994 536.927 639.382C530.973 642.667 524.145 644.31 516.445 644.31ZM496.271 604.424C496.271 611.405 498.119 617.052 501.815 621.364C505.511 625.573 510.388 627.678 516.445 627.678C522.503 627.678 527.379 625.573 531.075 621.364C534.874 617.052 536.773 611.405 536.773 604.424C536.773 597.443 534.874 591.847 531.075 587.638C527.379 583.326 522.503 581.17 516.445 581.17C510.388 581.17 505.511 583.326 501.815 587.638C498.119 591.847 496.271 597.443 496.271 604.424ZM598.184 644.31C590.69 644.31 584.119 642.616 578.472 639.228C572.826 635.737 568.462 631.015 565.382 625.06C562.405 619.003 560.916 612.227 560.916 604.732C560.916 596.929 562.508 589.999 565.69 583.942C568.873 577.782 573.339 573.008 579.088 569.62C584.94 566.232 591.614 564.538 599.108 564.538C608.759 564.538 616.716 567.105 622.978 572.238C629.241 577.371 632.783 584.096 633.604 592.412H614.97C614.252 589.229 612.506 586.56 609.734 584.404C606.962 582.248 603.369 581.17 598.954 581.17C593.102 581.17 588.431 583.275 584.94 587.484C581.552 591.693 579.858 597.34 579.858 604.424C579.858 611.611 581.552 617.309 584.94 621.518C588.431 625.625 593.051 627.678 598.8 627.678C603.112 627.678 606.706 626.497 609.58 624.136C612.558 621.775 614.457 618.695 615.278 614.896H633.912C633.194 620.132 631.294 625.009 628.214 629.526C625.237 634.043 621.182 637.637 616.048 640.306C610.915 642.975 604.96 644.31 598.184 644.31ZM668.858 644.31C658.489 644.31 650.378 642.257 644.526 638.15C638.777 634.043 635.697 628.037 635.286 620.132H654.228C654.844 626.395 659.926 629.526 669.474 629.526C673.581 629.526 676.815 628.705 679.176 627.062C681.64 625.419 682.872 623.212 682.872 620.44C682.872 615.82 679.433 613.202 672.554 612.586L660.542 611.354C653.458 610.533 647.863 608.171 643.756 604.27C639.752 600.266 637.75 595.081 637.75 588.716C637.75 581.221 640.522 575.318 646.066 571.006C651.713 566.694 659.31 564.538 668.858 564.538C678.509 564.538 686.106 566.591 691.65 570.698C697.297 574.702 700.326 580.554 700.736 588.254H682.41C682.308 585.277 681.024 583.069 678.56 581.632C676.199 580.195 672.862 579.476 668.55 579.476C664.649 579.476 661.518 580.246 659.156 581.786C656.898 583.223 655.768 585.225 655.768 587.792C655.768 590.051 656.641 591.796 658.386 593.028C660.234 594.26 663.058 595.133 666.856 595.646L679.022 597.032C686.106 597.853 691.599 600.266 695.5 604.27C699.402 608.171 701.352 613.253 701.352 619.516C701.352 627.113 698.426 633.171 692.574 637.688C686.722 642.103 678.817 644.31 668.858 644.31ZM763.887 644.31C755.161 644.31 748.231 642.205 743.097 637.996C737.964 633.684 735.397 627.883 735.397 620.594C735.397 613.51 737.707 607.812 742.327 603.5C747.05 599.085 753.877 596.57 762.809 595.954L783.753 594.722V591.026C783.753 587.022 782.727 584.147 780.673 582.402C778.62 580.554 775.386 579.63 770.971 579.63C766.659 579.63 763.425 580.297 761.269 581.632C759.113 582.967 757.779 585.174 757.265 588.254H739.093C740.633 572.443 751.67 564.538 772.203 564.538C781.341 564.538 788.425 566.797 793.455 571.314C798.589 575.729 801.155 581.94 801.155 589.948V624.906C801.155 626.446 801.925 627.216 803.465 627.216H810.087V642H796.227C793.558 642 791.453 641.333 789.913 639.998C788.476 638.561 787.757 636.559 787.757 633.992V633.376C785.601 636.764 782.419 639.433 778.209 641.384C774.103 643.335 769.329 644.31 763.887 644.31ZM753.723 619.978C753.723 622.853 754.801 625.111 756.957 626.754C759.216 628.397 762.347 629.218 766.351 629.218C771.587 629.218 775.797 627.832 778.979 625.06C782.162 622.185 783.753 618.079 783.753 612.74V608.582L765.581 610.122C761.68 610.43 758.703 611.508 756.649 613.356C754.699 615.101 753.723 617.309 753.723 619.978ZM816.873 566.848H833.043V575.626C835.199 572.033 838.228 569.312 842.129 567.464C846.133 565.513 850.599 564.538 855.527 564.538C864.87 564.538 872.159 567.361 877.395 573.008C882.734 578.655 885.403 586.509 885.403 596.57V642H867.077V598.418C867.077 592.669 865.742 588.357 863.073 585.482C860.506 582.607 856.759 581.17 851.831 581.17C846.8 581.17 842.745 582.813 839.665 586.098C836.688 589.383 835.199 593.695 835.199 599.034V642H816.873V566.848ZM930.068 644.31C922.984 644.31 916.721 642.667 911.28 639.382C905.838 635.994 901.578 631.323 898.498 625.368C895.52 619.311 894.032 612.329 894.032 604.424C894.032 596.519 895.52 589.589 898.498 583.634C901.578 577.577 905.838 572.905 911.28 569.62C916.721 566.232 922.984 564.538 930.068 564.538C934.893 564.538 939.256 565.411 943.158 567.156C947.162 568.799 950.293 571.16 952.552 574.24V534.2H970.878V642H954.708V633.068C952.346 636.559 948.958 639.331 944.544 641.384C940.232 643.335 935.406 644.31 930.068 644.31ZM912.974 604.424C912.974 611.405 914.822 617.052 918.518 621.364C922.214 625.573 927.039 627.678 932.994 627.678C938.948 627.678 943.722 625.573 947.316 621.364C951.012 617.052 952.86 611.405 952.86 604.424C952.86 597.443 951.012 591.847 947.316 587.638C943.722 583.326 938.948 581.17 932.994 581.17C927.039 581.17 922.214 583.326 918.518 587.638C914.822 591.847 912.974 597.443 912.974 604.424ZM1055.3 644.31C1041.65 644.31 1030.97 641.179 1023.27 634.916C1015.57 628.551 1011.62 619.773 1011.41 608.582H1030.82C1030.92 614.331 1033.13 618.9 1037.44 622.288C1041.85 625.676 1047.81 627.37 1055.3 627.37C1061.87 627.37 1067.06 625.881 1070.86 622.904C1074.76 619.824 1076.71 615.717 1076.71 610.584C1076.71 606.375 1075.32 603.089 1072.55 600.728C1069.78 598.264 1065.57 596.673 1059.92 595.954L1046.68 594.106C1025.43 591.334 1014.8 581.273 1014.8 563.922C1014.8 557.557 1016.44 551.961 1019.73 547.136C1023.01 542.208 1027.63 538.461 1033.59 535.894C1039.65 533.225 1046.58 531.89 1054.38 531.89C1066.8 531.89 1076.55 534.713 1083.64 540.36C1090.82 546.007 1094.52 553.655 1094.73 563.306H1075.48C1075.27 558.686 1073.27 555.093 1069.47 552.526C1065.77 549.857 1060.74 548.522 1054.38 548.522C1048.32 548.522 1043.44 549.805 1039.75 552.372C1036.15 554.939 1034.36 558.378 1034.36 562.69C1034.36 566.591 1035.8 569.671 1038.67 571.93C1041.65 574.086 1046.22 575.575 1052.38 576.396L1064.85 578.09C1085.79 580.657 1096.27 591.077 1096.27 609.352C1096.27 616.436 1094.62 622.596 1091.34 627.832C1088.05 633.068 1083.33 637.123 1077.17 639.998C1071.01 642.873 1063.72 644.31 1055.3 644.31ZM1109.61 534.2H1148.58C1158.94 534.2 1167.88 536.356 1175.37 540.668C1182.97 544.98 1188.77 551.191 1192.77 559.302C1196.88 567.413 1198.93 577.012 1198.93 588.1C1198.93 599.085 1196.93 608.633 1192.93 616.744C1188.92 624.855 1183.12 631.117 1175.53 635.532C1167.93 639.844 1158.94 642 1148.58 642H1109.61V534.2ZM1149.65 624.598C1159.2 624.598 1166.54 621.313 1171.68 614.742C1176.81 608.171 1179.38 599.291 1179.38 588.1C1179.38 576.909 1176.81 568.029 1171.68 561.458C1166.54 554.887 1159.2 551.602 1149.65 551.602H1128.56V624.598H1149.65ZM1242.47 595.184H1231.69V642H1212.75V534.2H1231.69V575.78H1242.17L1277.12 534.2H1300.38L1258.03 584.712L1300.38 642H1277.12L1242.47 595.184ZM1329.55 644.31C1319.19 644.31 1311.07 642.257 1305.22 638.15C1299.47 634.043 1296.39 628.037 1295.98 620.132H1314.92C1315.54 626.395 1320.62 629.526 1330.17 629.526C1334.28 629.526 1337.51 628.705 1339.87 627.062C1342.34 625.419 1343.57 623.212 1343.57 620.44C1343.57 615.82 1340.13 613.202 1333.25 612.586L1321.24 611.354C1314.15 610.533 1308.56 608.171 1304.45 604.27C1300.45 600.266 1298.45 595.081 1298.45 588.716C1298.45 581.221 1301.22 575.318 1306.76 571.006C1312.41 566.694 1320.01 564.538 1329.55 564.538C1339.21 564.538 1346.8 566.591 1352.35 570.698C1357.99 574.702 1361.02 580.554 1361.43 588.254H1343.11C1343 585.277 1341.72 583.069 1339.26 581.632C1336.9 580.195 1333.56 579.476 1329.25 579.476C1325.35 579.476 1322.21 580.246 1319.85 581.786C1317.59 583.223 1316.46 585.225 1316.46 587.792C1316.46 590.051 1317.34 591.796 1319.08 593.028C1320.93 594.26 1323.75 595.133 1327.55 595.646L1339.72 597.032C1346.8 597.853 1352.3 600.266 1356.2 604.27C1360.1 608.171 1362.05 613.253 1362.05 619.516C1362.05 627.113 1359.12 633.171 1353.27 637.688C1347.42 642.103 1339.51 644.31 1329.55 644.31Z" fill="white"/>
<defs>
<clipPath id="clip0_1_31">
<rect width="100" height="100" fill="white" transform="translate(120 120)"/>
</clipPath>
</defs>
</svg>
