<svg width="1128" height="191" viewBox="0 0 1128 191" fill="none" xmlns="http://www.w3.org/2000/svg">
<rect width="1128" height="191" rx="10" fill="#030712"/>
<g clip-path="url(#clip0_2_10)">
<path d="M456.282 121.657C456.184 121.538 456.086 121.421 455.989 121.305C456.443 120.93 456.906 120.536 457.373 120.138C457.628 119.921 457.884 119.703 458.141 119.486C459.366 118.451 460.66 117.397 462.077 116.446C464.899 114.551 468.151 113.1 472.128 113.1C475.451 113.1 478.673 113.673 481.67 115.322C484.484 116.87 487.207 119.426 489.642 123.572C487.395 126.949 481.484 132.246 472.506 131.882C464.526 131.559 459.746 125.817 456.282 121.657Z" fill="#ADFF8C" stroke="#ADFF8C" stroke-width="3.2"/>
<path d="M503.72 72.2529C500.577 71.5387 497.755 70.3151 495.533 69.3402C495.599 69.1597 495.666 68.9759 495.734 68.7888C496.463 66.7873 497.323 64.4247 498.595 62.0578C500.302 58.8837 502.613 55.9985 505.968 54.4535C508.855 53.1239 512.096 52.2123 515.585 52.3732C518.863 52.5242 522.46 53.6255 526.283 56.3786C525.967 60.1753 523.823 66.6098 515.36 71.1625C511.617 73.1758 507.542 73.1214 503.72 72.2529Z" fill="#ADFF8C" stroke="#ADFF8C" stroke-width="3.2"/>
<path d="M474.713 95.5632C474.52 95.3152 474.332 95.0739 474.149 94.8407C474.471 94.5731 474.799 94.297 475.133 94.015C476.713 92.6834 478.451 91.2189 480.519 89.8809C483.525 87.9367 486.89 86.5204 490.624 86.6982C496.65 86.9852 503.848 89.7421 508.48 98.9184C507.509 100.351 505.668 102.18 503.044 103.736C500.022 105.528 496.06 106.9 491.4 106.9C486.973 106.9 483.271 104.67 480.19 101.803C477.937 99.7076 476.174 97.4413 474.713 95.5632Z" fill="#ADFF8C" stroke="#ADFF8C" stroke-width="3.2"/>
<path d="M471.038 85.4671C471.367 85.6407 471.685 85.8091 471.991 85.9731C472.246 85.4922 472.518 84.9903 472.797 84.4756C473.063 83.9844 473.336 83.4815 473.606 82.9738C474.495 81.3043 475.41 79.4918 476.18 77.5714C477.726 73.7162 478.628 69.5686 477.646 65.4477C476.052 58.7649 470.701 50.6557 460.757 48.1204C456.688 52.144 453.542 59.3698 455.439 69.3255C456.385 74.287 459.572 77.9347 463.261 80.7322C465.96 82.7791 468.744 84.2526 471.038 85.4671Z" fill="#ADFF8C" stroke="#ADFF8C" stroke-width="3.2"/>
<path d="M455.422 104.195C455.665 104.213 455.905 104.231 456.141 104.25C456.16 104.046 456.18 103.84 456.201 103.632C456.363 101.978 456.536 100.215 456.489 98.3064C456.421 95.5865 455.888 92.9105 454.287 90.6154C452.732 88.386 450.857 86.581 448.432 85.4448C446.184 84.3918 443.353 83.8613 439.675 84.2177C438.475 87.1285 437.725 92.9346 441.796 98.5622C443.822 101.363 446.675 102.712 449.639 103.416C451.733 103.914 453.67 104.061 455.422 104.195Z" fill="#ADFF8C" stroke="#ADFF8C" stroke-width="3.2"/>
<path d="M462.999 97.3001C445.499 116.6 440.365 134.267 440.099 140.4C440.055 141.4 440.399 143.253 443.399 143.9C446.399 144.548 448.599 143.4 448.899 141.4C449.944 134.432 453.999 119.8 467.799 101C481.599 82.2001 494.999 73.3001 495.999 71.2001C496.999 69.1001 495.065 68.0001 493.699 68.6001C490.832 69.9334 480.913 77.5433 462.999 97.3001Z" fill="#ADFF8C"/>
</g>
<g clip-path="url(#clip1_2_10)">
<path d="M651.619 80.6754H662.371V86.5123C663.805 84.1229 665.819 82.3138 668.413 81.085C671.075 79.788 674.045 79.1395 677.322 79.1395C683.534 79.1395 688.381 81.0168 691.862 84.7715C695.412 88.5261 697.187 93.7485 697.187 100.439V130.647H685.002V101.667C685.002 97.8445 684.114 94.9773 682.339 93.0659C680.632 91.1544 678.141 90.1987 674.864 90.1987C671.519 90.1987 668.822 91.2909 666.774 93.4754C664.795 95.66 663.805 98.5272 663.805 102.077V130.647H651.619V80.6754Z" fill="#ADFF8C"/>
<path d="M617.539 80.6755H628.291V89.3795C628.906 86.5806 630.169 84.4302 632.08 82.9283C634.06 81.4264 636.586 80.6755 639.658 80.6755H648.874V91.4275H638.326C635.391 91.4275 633.206 92.2126 631.773 93.7827C630.407 95.2846 629.725 97.6056 629.725 100.746V130.647H617.539V80.6755Z" fill="#ADFF8C"/>
<path d="M591.069 132.183C586.085 132.183 581.682 131.09 577.859 128.906C574.105 126.653 571.169 123.513 569.053 119.485C567.005 115.389 565.981 110.679 565.981 105.354C565.981 100.097 567.005 95.4893 569.053 91.5298C571.101 87.5704 573.968 84.5325 577.654 82.4163C581.409 80.2317 585.676 79.1395 590.454 79.1395C598.032 79.1395 603.971 81.4264 608.272 86.0003C612.641 90.5741 614.826 96.7864 614.826 104.637C614.826 106.753 614.757 108.494 614.621 109.859H577.962C578.303 113.682 579.6 116.652 581.853 118.768C584.174 120.885 587.28 121.943 591.171 121.943C593.697 121.943 595.848 121.431 597.622 120.407C599.397 119.383 600.694 117.949 601.514 116.106H614.006C612.436 121.158 609.706 125.117 605.814 127.984C601.923 130.783 597.008 132.183 591.069 132.183ZM602.538 100.439V100.131C602.538 96.7864 601.48 94.0899 599.363 92.0419C597.247 89.9939 594.277 88.9699 590.454 88.9699C586.836 88.9699 583.901 90.028 581.648 92.1442C579.395 94.1922 578.166 96.9571 577.962 100.439H602.538Z" fill="#ADFF8C"/>
<mask id="path-11-outside-1_2_10" maskUnits="userSpaceOnUse" x="532.119" y="58.0675" width="46" height="73" fill="black">
<rect fill="white" x="532.119" y="58.0675" width="46" height="73"/>
<path fill-rule="evenodd" clip-rule="evenodd" d="M549.708 62.7539C547.182 65.2115 545.919 68.7272 545.919 73.3011V80.7763H533.119V91.5283H545.919V130.747H558.105V91.5283H565.503C566.023 90.106 566.679 88.722 567.504 87.4843C569.429 84.5975 571.515 82.4283 573.887 80.7763H558.105V74.6323C558.105 71.4238 559.811 69.8195 563.225 69.8195H577.254V59.0675H560.46C555.886 59.0675 552.302 60.2963 549.708 62.7539Z"/>
</mask>
<path fill-rule="evenodd" clip-rule="evenodd" d="M549.708 62.7539C547.182 65.2115 545.919 68.7272 545.919 73.3011V80.7763H533.119V91.5283H545.919V130.747H558.105V91.5283H565.503C566.023 90.106 566.679 88.722 567.504 87.4843C569.429 84.5975 571.515 82.4283 573.887 80.7763H558.105V74.6323C558.105 71.4238 559.811 69.8195 563.225 69.8195H577.254V59.0675H560.46C555.886 59.0675 552.302 60.2963 549.708 62.7539Z" fill="#ADFF8C"/>
<path d="M549.708 62.7539L549.57 62.6087L549.568 62.6105L549.708 62.7539ZM545.919 80.7763V80.9763H546.119V80.7763H545.919ZM533.119 80.7763V80.5763H532.919V80.7763H533.119ZM533.119 91.5283H532.919V91.7283H533.119V91.5283ZM545.919 91.5283H546.119V91.3283H545.919V91.5283ZM545.919 130.747H545.719V130.947H545.919V130.747ZM558.105 130.747V130.947H558.305V130.747H558.105ZM558.105 91.5283V91.3283H557.905V91.5283H558.105ZM565.503 91.5283V91.7283H565.643L565.691 91.5969L565.503 91.5283ZM567.504 87.4843L567.338 87.3734L567.338 87.3734L567.504 87.4843ZM573.887 80.7763L574.001 80.9404L574.524 80.5763H573.887V80.7763ZM558.105 80.7763H557.905V80.9763H558.105V80.7763ZM577.254 69.8195V70.0195H577.454V69.8195H577.254ZM577.254 59.0675H577.454V58.8675H577.254V59.0675ZM546.119 73.3011C546.119 68.7644 547.371 65.3069 549.847 62.8972L549.568 62.6105C546.993 65.1161 545.719 68.6901 545.719 73.3011H546.119ZM546.119 80.7763V73.3011H545.719V80.7763H546.119ZM533.119 80.9763H545.919V80.5763H533.119V80.9763ZM533.319 91.5283V80.7763H532.919V91.5283H533.319ZM545.919 91.3283H533.119V91.7283H545.919V91.3283ZM546.119 130.747V91.5283H545.719V130.747H546.119ZM558.105 130.547H545.919V130.947H558.105V130.547ZM557.905 91.5283V130.747H558.305V91.5283H557.905ZM565.503 91.3283H558.105V91.7283H565.503V91.3283ZM567.338 87.3734C566.502 88.6272 565.839 90.0262 565.316 91.4597L565.691 91.5969C566.206 90.1859 566.856 88.8169 567.671 87.5952L567.338 87.3734ZM573.772 80.6122C571.378 82.2805 569.274 84.4689 567.338 87.3734L567.671 87.5952C569.584 84.7262 571.653 82.5761 574.001 80.9404L573.772 80.6122ZM558.105 80.9763H573.887V80.5763H558.105V80.9763ZM557.905 74.6323V80.7763H558.305V74.6323H557.905ZM563.225 69.6195C561.49 69.6195 560.152 70.0269 559.248 70.877C558.341 71.7293 557.905 72.9939 557.905 74.6323H558.305C558.305 73.0621 558.722 71.9204 559.522 71.1684C560.324 70.4143 561.546 70.0195 563.225 70.0195V69.6195ZM577.254 69.6195H563.225V70.0195H577.254V69.6195ZM577.054 59.0675V69.8195H577.454V59.0675H577.054ZM560.46 59.2675H577.254V58.8675H560.46V59.2675ZM549.845 62.8991C552.393 60.4857 555.922 59.2675 560.46 59.2675V58.8675C555.85 58.8675 552.211 60.1068 549.57 62.6087L549.845 62.8991Z" fill="#ADFF8C" mask="url(#path-11-outside-1_2_10)"/>
</g>
<defs>
<clipPath id="clip0_2_10">
<rect width="102.4" height="102.4" fill="white" transform="translate(430.1 44.3)"/>
</clipPath>
<clipPath id="clip1_2_10">
<rect width="165.4" height="74.4" fill="white" transform="translate(532.5 58.3)"/>
</clipPath>
</defs>
</svg>
